<svg id="svg2" xmlns:rdf="http://www.w3.org/1999/02/22-rdf-syntax-ns#" xmlns="http://www.w3.org/2000/svg" height="226mm" viewBox="0 0 1254.3303 800.78744" width="354mm" version="1.1" xmlns:cc="http://creativecommons.org/ns#" xmlns:dc="http://purl.org/dc/elements/1.1/">
 <rect id="rect3348" height="792.05" width="1245.3" stroke="#b4915a" stroke-linecap="round" y="3.8102" x="6.4275" stroke-width="12.209" fill="#b4915a"/>
 <rect id="rect4152" height="719.18" width="1224.9" stroke="#f7aa63" stroke-linecap="round" y="66.88" x="16.766" stroke-width="32" fill="#b4915a"/>
 <g stroke-width="0">
  <g id="g3405" fill="#f7aa63" transform="translate(-1.1121 -8.8198)">
   <rect id="rect4154" y="211.01" width="57.143" x="598.9" height="122.86"/>
   <rect id="rect4156" y="522.43" width="57.143" x="596.82" height="122.86"/>
   <rect id="rect4158" transform="rotate(90)" height="122.86" width="57.143" y="-463.18" x="398.15"/>
   <rect id="rect4160" transform="rotate(90)" height="122.86" width="57.143" y="-914.61" x="398.02"/>
  </g>
  <g id="g3411" fill-rule="evenodd" transform="translate(-1.1121 -8.8198)">
   <path id="path4190" fill="#1818a5" d="m981.02 11.66-94.197 0.00004v23.486l62.629 0.00002v7.5762l-62.882-0.2526 0.25253 8.0813 94.197-0.50514c-0.33614 0.67228 0.16777-22.476-0.50508-22.476h-62.882l0.25254-7.8287h63.135z"/>
   <path id="path4192" fill="#bd3031" d="m256.7 11.77c0.305-0.1525 0 7.8286 0 7.8286 1.7678-0.2525 63.261 0.12633 63.261 0.12633l0.2525 30.81h30.81l-0.2525-38.891z"/>
   <path id="path4194" fill="#1818a5" d="m843.19 11.86v38.743l30.81-0.13342-0.25254-38.61z"/>
   <path id="path4175" fill="#bd3031" d="m304.11 576.16 6.8519 13.745-7.2269 3.9088 3.5053 6.8318 20.495-10.516 3.6726 7.5488-20.414 10.675 3.4197 6.2736 7.6261-3.9129 7.0922 13.822-42.021 21.762-7.0922-13.822 13.342-7.2469-10.516-20.495-13.822 7.0922-6.8559-14.144z"/>
   <path id="path4171" fill="#1818a5" d="m683.08 266.62 13.913 6.5046 3.7261-7.3228 6.9176 3.3327-9.9981 20.753 7.6386 3.4819 10.159-20.675 6.3575 3.2611-3.7202 7.722 13.996 6.7429 20.7-42.554-13.996-6.7429-6.9096 13.519-20.753-9.9981 6.7429-13.996-14.312-6.4986z"/>
  </g>
  <g id="g3418" transform="translate(-1.1121 -8.8198)">
   <rect id="rect4177" transform="matrix(.5454 .83817 -.83817 .5454 0 0)" height="6.6291" width="7.7655" y="-236.59" x="702.8" fill="#bd3031"/>
   <rect id="rect4222" transform="rotate(24.734)" height="6.6291" width="7.7655" y="39.776" x="754.69" fill="#1818a5"/>
   <path id="path4173" fill-rule="evenodd" fill="#f7aa63" d="m167.67 333.5h62.957l0.7819 188.26-63.393 0.0799 0.03-31.221 30.912 0.0799-0.7818-123.68-30.476 0.0434z"/>
   <path id="path4169" fill-rule="evenodd" fill="#f7aa63" d="m1104.3 331.31h-62.957l-0.7819 188.26 63.393 0.0799-0.03-31.221-30.912 0.0799 0.7818-123.68 30.476 0.0434z"/>
  </g>
 </g>
</svg>
